<?xml version="1.0" encoding="UTF-8" standalone="no"?>
<!-- Created with Inkscape (http://www.inkscape.org/) -->

<svg
   xmlns:dc="http://purl.org/dc/elements/1.1/"
   xmlns:cc="http://creativecommons.org/ns#"
   xmlns:rdf="http://www.w3.org/1999/02/22-rdf-syntax-ns#"
   xmlns:svg="http://www.w3.org/2000/svg"
   xmlns="http://www.w3.org/2000/svg"
   xmlns:sodipodi="http://sodipodi.sourceforge.net/DTD/sodipodi-0.dtd"
   xmlns:inkscape="http://www.inkscape.org/namespaces/inkscape"
   width="32"
   height="32"
   viewBox="0 0 32 32.000001"
   id="svg2"
   version="1.1"
   inkscape:version="0.91 r13725"
   sodipodi:docname="redditgag-favicon.svg">
  <defs
     id="defs4" />
  <sodipodi:namedview
     id="base"
     pagecolor="#ffffff"
     bordercolor="#666666"
     borderopacity="1.0"
     inkscape:pageopacity="0.0"
     inkscape:pageshadow="2"
     inkscape:zoom="16.713008"
     inkscape:cx="26.297035"
     inkscape:cy="9.8245455"
     inkscape:document-units="px"
     inkscape:current-layer="layer1"
     showgrid="false"
     units="px"
     showguides="true"
     inkscape:guide-bbox="true"
     inkscape:snap-page="false"
     inkscape:snap-bbox="true"
     inkscape:snap-bbox-edge-midpoints="true"
     inkscape:snap-global="true"
     inkscape:window-width="1362"
     inkscape:window-height="745"
     inkscape:window-x="0"
     inkscape:window-y="19"
     inkscape:window-maximized="1">
    <sodipodi:guide
       position="16,32.000001"
       orientation="1,0"
       id="guide4598"
       inkscape:label=""
       inkscape:color="rgb(0,0,255)" />
    <sodipodi:guide
       position="0,16"
       orientation="0,1"
       id="guide4766"
       inkscape:label=""
       inkscape:color="rgb(0,0,255)" />
  </sodipodi:namedview>
  <metadata
     id="metadata7">
    <rdf:RDF>
      <cc:Work
         rdf:about="">
        <dc:format>image/svg+xml</dc:format>
        <dc:type
           rdf:resource="http://purl.org/dc/dcmitype/StillImage" />
        <dc:title></dc:title>
      </cc:Work>
    </rdf:RDF>
  </metadata>
  <g
     inkscape:label="Ebene 1"
     inkscape:groupmode="layer"
     id="layer1"
     transform="translate(0,-1020.3622)">
    <g
       id="g5323"
       transform="matrix(1.4084289,0,0,1.4123059,-6.5348624,-418.40241)">
      <ellipse
         ry="2.1612208"
         rx="2.1551692"
         style="fill:#191919;fill-opacity:1;stroke:#000000;stroke-width:0.77993941;stroke-opacity:1"
         cx="7.1854992"
         cy="1029.853"
         id="circle4523" />
      <ellipse
         ry="2.1612208"
         rx="2.1551692"
         style="fill:#191919;fill-opacity:1;stroke:#000000;stroke-width:0.77993941;stroke-opacity:1"
         cx="24.814501"
         cy="1029.853"
         id="circle4525" />
      <path
         style="fill:none;stroke:#000000;stroke-width:0.77993941;stroke-linecap:round;stroke-linejoin:round;stroke-opacity:1"
         inkscape:connector-curvature="0"
         d="m 21.974971,1022.2672 c 0,0 0,0 -4.310339,-1.0175 l -1.584073,5.0216"
         id="path4527" />
      <ellipse
         ry="1.7037011"
         rx="1.6989307"
         style="fill:#191919;fill-opacity:1;stroke:#000000;stroke-width:0.77993941;stroke-opacity:1"
         cx="23.733723"
         cy="1022.6167"
         id="circle4531" />
      <ellipse
         style="fill:#191919;fill-opacity:1;stroke:#000000;stroke-width:0.77993941;stroke-opacity:1"
         cx="15.952939"
         cy="1032.8253"
         rx="9.7612734"
         ry="6.3884792"
         id="ellipse4543" />
      <path
         style="opacity:1;fill:#ffffff;fill-opacity:1"
         inkscape:connector-curvature="0"
         d="m 11.543226,1030.2601 c 1.487898,-0.8572 2.975795,-1.713 4.464348,-2.5669 1.487897,0.8544 2.977764,1.7065 4.463692,2.5643 -0.0019,1.7137 -0.0027,3.4274 6.29e-4,5.141 -1.485271,0.8591 -2.977106,1.7052 -4.465003,2.559 -1.491836,-0.8611 -2.991546,-1.7084 -4.478787,-2.5766 0.593321,-0.3381 1.185985,-0.6767 1.780619,-1.0129 0.89917,0.5186 1.800966,1.0338 2.698168,1.5556 0.895232,-0.5258 1.802278,-1.0311 2.694228,-1.5621 -0.0078,-0.6858 -6.29e-4,-1.371 -0.004,-2.057 -0.895888,0.5199 -1.79309,1.0383 -2.69029,1.5563 -1.48921,-0.8475 -2.973827,-1.7032 -4.463036,-2.5519 0,-0.3498 6.29e-4,-0.6996 -6.82e-4,-1.0488 m 2.643691,0.5145 c 0.603823,0.3546 1.214209,0.6997 1.82,1.0516 0.609729,-0.3498 1.218803,-0.7004 1.829845,-1.0495 -0.611042,-0.3472 -1.219458,-0.6997 -1.829845,-1.0482 -0.607105,0.3479 -1.211583,0.701 -1.82,1.0461 z"
         id="path4736" />
    </g>
  </g>
</svg>
